<mxfile host="app.diagrams.net" modified="2023-11-27T00:08:27.753Z" agent="Mozilla/5.0 (Windows NT 10.0; Win64; x64) AppleWebKit/537.36 (KHTML, like Gecko) Chrome/119.0.0.0 Safari/537.36" version="22.1.4" etag="tppV6aGEH-aN2fue0sJa" type="github">
  <diagram name="Page-1" id="2-P20ctwDpJJW9TE4Lef">
    <mxGraphModel>
      <root>
        <mxCell id="0" />
        <mxCell id="1" parent="0" />
      </root>
    </mxGraphModel>
  </diagram>
</mxfile>
